HIERARCHY
ROOT Hips
{
  OFFSET 0.0000 0.0000 0.0000
  CHANNELS 6 Xposition Yposition Zposition Zrotation Xrotation Yrotation
  JOINT LeftHip
  {
    OFFSET 3.7500 -0.0000 0.0000
    CHANNELS 3 Zrotation Xrotation Yrotation
    JOINT LeftKnee
    {
      OFFSET 0.0000 -15.5000 0.0000
      CHANNELS 3 Zrotation Xrotation Yrotation
      JOINT LeftAnkle
      {
        OFFSET 0.0000 -15.5000 -0.0000
        CHANNELS 3 Zrotation Xrotation Yrotation
        End Site
        {
          OFFSET 0.0000 -2.5296 0.0000
        }
      }
    }
  }
  JOINT RightHip
  {
    OFFSET -3.7500 0.0000 0.0000
    CHANNELS 3 Zrotation Xrotation Yrotation
    JOINT RightKnee
    {
      OFFSET 0.0000 -15.5000 0.0000
      CHANNELS 3 Zrotation Xrotation Yrotation
      JOINT RightAnkle
      {
        OFFSET 0.0000 -15.5000 0.0000
        CHANNELS 3 Zrotation Xrotation Yrotation
        End Site
        {
          OFFSET 0.0000 -2.5296 0.0000
        }
      }
    }
  }
  JOINT Chest
  {
    OFFSET -0.0000 4.5700 -0.0000
    CHANNELS 3 Zrotation Xrotation Yrotation
    JOINT Chest2
    {
      OFFSET 0.0000 8.1184 0.0000
      CHANNELS 3 Zrotation Xrotation Yrotation
      JOINT LeftCollar
      {
        OFFSET 1.5000 9.7058 0.5000
        CHANNELS 3 Zrotation Xrotation Yrotation
        JOINT LeftShoulder
        {
          OFFSET 5.2500 0.0000 0.0000
          CHANNELS 3 Zrotation Xrotation Yrotation
          JOINT LeftElbow
          {
            OFFSET 0.0000 -11.0000 0.0000
            CHANNELS 3 Zrotation Xrotation Yrotation
            JOINT LeftWrist
            {
              OFFSET 0.0000 -9.8200 0.0000
              CHANNELS 3 Zrotation Xrotation Yrotation
              End Site
              {
                OFFSET 0.0000 -7.0000 0.0000
              }
            }
          }
        }
      }
      JOINT RightCollar
      {
        OFFSET -1.5000 9.7058 0.5000
        CHANNELS 3 Zrotation Xrotation Yrotation
        JOINT RightShoulder
        {
          OFFSET -5.2500 -0.0000 0.0000
          CHANNELS 3 Zrotation Xrotation Yrotation
          JOINT RightElbow
          {
            OFFSET 0.0000 -11.0000 0.0000
            CHANNELS 3 Zrotation Xrotation Yrotation
            JOINT RightWrist
            {
              OFFSET 0.0000 -9.8200 -0.0000
              CHANNELS 3 Zrotation Xrotation Yrotation
              End Site
              {
                OFFSET -0.0000 -7.0000 0.0000
              }
            }
          }
        }
      }
      JOINT Neck
      {
        OFFSET 0.0000 9.5000 0.0000
        CHANNELS 3 Zrotation Xrotation Yrotation
        JOINT Head
        {
          OFFSET -0.0000 5.2180 0.0000
          CHANNELS 3 Zrotation Xrotation Yrotation
          End Site
          {
            OFFSET 0.0000 4.1400 0.0000
          }
        }
      }
    }
  }
}
MOTION
Frames:	14
Frame Time:	0.033333
1.1972 36.4241 91.7085 -0.49 1.67 175.26 -1.91 0.73 3.69 0.06 2.05 1.42 3.96 -2.96 0.05 3.49 -1.08 -3.24 -3.56 7.00 -1.13 2.40 -2.84 -0.27 -1.17 -3.79 0.15 2.68 0.86 0.15 -17.37 -0.38 6.65 25.34 -0.47 -0.69 -2.41 -9.56 -0.42 4.41 4.79 -30.94 16.21 0.21 -5.29 -26.57 2.45 -8.09 -1.00 -2.27 -0.04 0.15 -0.91 34.82 -0.09 20.25 2.84 -0.18 -9.83 7.22 
1.1864 36.4202 91.6233 -0.48 1.34 174.72 -1.93 0.74 3.63 0.13 1.75 1.97 3.67 -2.94 0.05 3.47 -1.23 -3.26 -3.47 6.84 -0.63 2.11 -2.92 -0.26 -0.99 -3.94 0.33 2.42 0.59 0.35 -17.26 -0.36 6.61 25.08 0.66 0.19 -2.28 -8.83 -0.36 4.61 5.23 -31.36 16.34 0.22 -5.27 -26.37 2.13 -8.09 -1.04 -2.11 -0.04 0.05 -0.80 34.70 0.13 19.91 2.84 -0.08 -10.48 7.53 
1.1876 36.4176 91.5514 -0.46 1.11 174.41 -1.92 0.69 3.60 0.21 1.67 2.27 3.57 -2.94 0.05 3.45 -1.44 -3.23 -3.39 7.02 -0.36 2.01 -3.12 -0.25 -0.92 -3.88 0.48 2.34 0.31 0.49 -17.28 -0.35 6.61 24.99 1.63 0.99 -2.18 -8.41 -0.33 4.80 5.50 -31.60 16.36 0.17 -5.42 -26.14 1.71 -7.90 -1.03 -1.89 -0.03 -0.15 -0.79 34.39 0.30 19.57 2.76 -0.07 -11.08 7.67 
1.2016 36.4149 91.4808 -0.42 0.92 174.13 -1.91 0.75 3.61 0.31 1.49 2.56 3.49 -3.00 0.06 3.54 -1.66 -3.06 -3.39 7.31 -0.29 1.93 -3.33 -0.25 -0.79 -3.78 0.64 2.26 0.09 0.66 -17.30 -0.42 6.81 25.03 2.29 1.71 -2.12 -8.03 -0.31 4.79 5.57 -31.62 16.29 0.11 -5.57 -25.88 1.42 -7.33 -0.89 -1.95 -0.03 -0.16 -0.78 34.17 0.38 19.21 2.68 0.02 -11.46 7.72 
1.2147 36.4116 91.4101 -0.44 0.76 174.02 -1.99 0.85 3.53 0.46 1.27 2.74 3.38 -3.09 0.08 3.56 -1.86 -2.95 -3.44 7.64 -0.22 1.92 -3.62 -0.25 -0.71 -3.67 0.80 2.13 -0.15 0.82 -17.23 -0.44 6.87 25.06 2.79 2.27 -2.05 -7.75 -0.29 4.82 5.68 -31.43 16.24 0.08 -5.67 -25.66 1.37 -6.72 -0.73 -2.14 -0.03 -0.16 -0.93 34.58 0.50 18.99 2.54 -0.01 -11.74 7.59 
1.2184 36.4087 91.3341 -0.53 0.60 174.09 -2.17 0.90 3.32 0.65 1.12 2.88 3.27 -3.16 0.10 3.46 -2.05 -3.04 -3.40 7.98 -0.21 1.94 -3.92 -0.24 -0.60 -3.65 0.91 1.87 -0.31 0.93 -17.19 -0.37 6.67 25.19 3.20 2.53 -2.03 -7.75 -0.28 4.83 5.84 -31.20 16.32 0.06 -5.71 -25.54 1.42 -6.20 -0.62 -2.32 -0.02 -0.33 -1.12 35.40 0.58 18.82 2.42 0.06 -11.92 7.42 
1.2331 36.4044 91.2393 -0.63 0.50 174.32 -2.26 0.99 3.21 0.70 1.03 2.81 3.14 -3.33 0.10 3.34 -2.08 -3.21 -3.35 8.23 -0.25 1.94 -4.24 -0.23 -0.68 -3.84 0.93 1.89 0.01 0.94 -17.25 -0.35 6.64 25.35 3.19 2.55 -2.02 -7.84 -0.29 4.96 5.86 -30.96 16.32 0.05 -5.75 -25.47 1.27 -5.82 -0.56 -2.38 -0.02 -0.62 -1.27 36.16 0.53 18.42 2.39 0.11 -11.95 7.28 
1.2694 36.4023 91.1295 -0.68 0.39 174.60 -2.16 1.09 3.35 0.56 0.99 2.44 3.04 -3.45 0.09 3.38 -2.07 -3.19 -3.39 8.43 -0.54 1.90 -4.54 -0.23 -0.85 -4.08 0.94 2.05 0.31 0.95 -17.31 -0.42 6.83 25.50 2.90 2.48 -2.00 -7.87 -0.28 5.16 5.89 -30.87 16.20 0.02 -5.83 -25.35 1.15 -5.61 -0.54 -2.32 -0.02 -0.94 -1.32 36.80 0.47 18.10 2.36 0.16 -12.02 7.12 
1.3228 36.3944 90.9921 -0.70 0.36 174.89 -2.01 1.31 3.54 0.43 0.96 2.02 2.88 -3.67 0.08 3.54 -1.91 -3.05 -3.52 8.64 -0.96 1.85 -4.95 -0.23 -1.03 -4.18 0.91 2.22 0.32 0.93 -17.34 -0.51 7.08 25.66 2.69 2.32 -2.01 -7.92 -0.29 5.41 5.89 -30.97 16.07 0.03 -5.79 -25.25 1.25 -5.76 -0.56 -2.24 -0.02 -0.76 -1.52 36.85 0.46 18.00 2.35 0.27 -12.20 7.01 
1.3957 36.3851 90.8204 -0.71 0.38 175.21 -1.84 1.59 3.72 0.32 1.07 1.49 2.80 -4.07 0.08 3.71 -1.65 -2.96 -3.62 8.87 -1.34 1.77 -5.43 -0.24 -1.22 -4.36 0.84 2.34 0.48 0.85 -17.31 -0.57 7.23 25.80 2.44 2.15 -2.03 -8.03 -0.29 5.61 5.82 -30.88 15.99 0.04 -5.76 -25.18 1.33 -5.90 -0.56 -2.22 -0.02 -0.62 -1.49 36.56 0.49 17.84 2.32 0.47 -12.34 6.89 
1.4887 36.3727 90.6290 -0.70 0.43 175.30 -1.57 1.96 4.10 0.10 1.16 1.06 2.63 -4.52 0.07 3.95 -1.46 -2.73 -3.77 9.32 -1.71 1.75 -5.97 -0.25 -1.50 -4.58 0.82 2.51 0.70 0.84 -17.23 -0.54 7.13 25.86 2.20 1.99 -2.05 -8.16 -0.30 5.80 5.83 -30.33 15.95 0.03 -5.77 -25.13 1.33 -6.10 -0.58 -2.21 -0.02 -0.36 -1.33 36.03 0.63 17.71 2.27 0.51 -12.45 6.79 
1.5786 36.3575 90.4279 -0.76 0.56 175.11 -1.42 2.34 4.43 -0.04 1.45 0.98 2.47 -4.98 0.07 4.08 -1.37 -2.48 -3.89 10.10 -1.73 1.63 -6.64 -0.25 -1.71 -4.68 0.90 2.50 0.77 0.92 -17.14 -0.51 7.04 25.94 1.98 1.71 -2.11 -8.31 -0.32 6.03 6.07 -29.61 16.10 0.05 -5.74 -25.17 1.35 -6.32 -0.61 -2.22 -0.02 -0.03 -1.12 35.40 0.83 17.75 2.22 0.38 -12.53 6.76 
1.6652 36.3354 90.1964 -0.84 0.88 174.79 -1.33 2.66 4.70 -0.15 2.40 1.08 2.29 -5.97 0.08 4.10 -1.17 -2.41 -3.96 11.13 -1.50 1.57 -7.42 -0.25 -1.82 -4.58 0.97 2.46 0.78 0.99 -17.03 -0.52 7.05 25.91 1.84 1.35 -2.23 -8.41 -0.34 6.34 5.80 -28.69 16.33 0.12 -5.53 -25.25 1.46 -6.29 -0.59 -2.31 -0.02 -0.38 -0.85 35.41 0.87 17.88 2.20 0.26 -12.37 6.77 
1.7477 36.3023 89.9422 -0.97 1.42 174.36 -1.38 2.67 4.84 -0.17 4.44 1.47 2.29 -7.37 0.11 4.00 -0.85 -2.43 -4.05 12.39 -1.02 1.44 -8.30 -0.24 -1.93 -4.33 1.05 2.54 0.95 1.05 -17.02 -0.55 7.14 25.76 1.71 1.37 -2.27 -8.49 -0.35 6.20 4.98 -28.16 16.46 0.16 -5.39 -25.26 1.30 -6.08 -0.58 -2.32 -0.02 -1.11 -0.72 36.09 0.64 17.99 2.29 0.08 -12.27 6.92 
